<?xml version="1.0" standalone="no"?>
<!DOCTYPE svg PUBLIC "-//W3C//DTD SVG 20010904//EN"
 "http://www.w3.org/TR/2001/REC-SVG-20010904/DTD/svg10.dtd">
<svg version="1.0" xmlns="http://www.w3.org/2000/svg"
 width="288.000000pt" height="288.000000pt" viewBox="0 0 288.000000 288.000000"
 preserveAspectRatio="xMidYMid meet">
<metadata>
Created by potrace 1.11, written by Peter Selinger 2001-2013
</metadata>
<g transform="translate(0.000000,288.000000) scale(0.100000,-0.100000)"
fill="#000000" stroke="none">
<path d="M410 2502 l0 -68 100 -12 c122 -14 163 -30 187 -74 17 -31 18 -81 18
-888 0 -947 3 -899 -65 -932 -19 -9 -80 -23 -135 -30 l-100 -13 0 -70 0 -70
615 0 c642 1 693 3 857 46 248 65 411 224 458 446 27 126 13 290 -33 379 -51
100 -152 189 -289 256 -46 22 -83 41 -83 43 0 1 25 15 55 30 201 98 294 322
241 576 -52 242 -240 380 -596 434 -75 12 -215 15 -662 15 l-568 0 0 -68z
m1117 -156 c131 -29 225 -96 272 -196 23 -50 26 -67 26 -175 0 -138 -14 -183
-80 -247 -84 -83 -182 -109 -426 -111 l-181 -2 1 369 c1 283 4 372 14 379 17
12 300 0 374 -17z m-74 -961 c339 -51 460 -174 444 -455 -7 -126 -28 -182 -91
-245 -95 -94 -270 -141 -496 -132 -134 5 -155 9 -165 35 -4 12 -8 656 -5 810
0 8 232 -1 313 -13z"/>
</g>
</svg>
