<?xml version="1.0" standalone="no"?>
<!DOCTYPE svg PUBLIC "-//W3C//DTD SVG 20010904//EN"
 "http://www.w3.org/TR/2001/REC-SVG-20010904/DTD/svg10.dtd">
<svg version="1.0" xmlns="http://www.w3.org/2000/svg"
 width="512.000000pt" height="512.000000pt" viewBox="0 0 512.000000 512.000000"
 preserveAspectRatio="xMidYMid meet">
<metadata>
Created by potrace 1.11, written by Peter Selinger 2001-2013
</metadata>
<g transform="translate(0.000000,512.000000) scale(0.100000,-0.100000)"
fill="#000000" stroke="none">
<path d="M2493 5101 c-44 -21 -173 -139 -173 -160 0 -7 -4 -10 -9 -7 -4 3 -13
-6 -19 -19 -7 -14 -16 -25 -22 -25 -5 0 -10 -6 -10 -13 0 -7 -9 -18 -20 -25
-11 -7 -20 -19 -20 -27 0 -8 -4 -15 -8 -15 -5 0 -22 -19 -39 -42 -17 -24 -39
-52 -50 -63 -10 -11 -36 -43 -58 -70 -22 -27 -69 -80 -105 -117 -36 -38 -64
-68 -62 -68 3 0 -8 -10 -24 -22 -69 -55 -134 -131 -140 -166 -6 -31 -3 -39 20
-59 l27 -23 -26 -37 c-14 -21 -25 -48 -25 -61 0 -25 41 -72 63 -72 8 0 20 -6
26 -14 9 -10 5 -17 -14 -32 -14 -10 -25 -22 -25 -26 0 -5 -83 -88 -220 -219
-88 -85 -110 -147 -68 -197 13 -15 25 -28 28 -29 3 -1 18 -6 33 -12 16 -6 34
-11 41 -11 30 0 22 -17 -37 -74 -34 -34 -68 -74 -75 -89 -17 -39 -15 -86 3
-93 8 -4 15 -10 15 -15 0 -9 -67 -75 -166 -164 -85 -75 -124 -135 -124 -189 0
-32 6 -45 39 -76 21 -20 45 -37 52 -38 8 0 38 -9 67 -19 l54 -19 -47 -44
c-149 -142 -173 -177 -162 -245 6 -37 -8 -53 -173 -205 -173 -158 -210 -209
-210 -291 0 -39 5 -52 33 -81 17 -19 44 -41 58 -50 32 -20 145 -55 187 -57 6
-1 12 -6 12 -13 0 -6 -3 -9 -6 -6 -8 8 -210 -198 -247 -252 -32 -46 -48 -62
-190 -192 -44 -40 -92 -84 -106 -98 -31 -30 -91 -105 -91 -115 0 -3 -6 -13
-14 -21 -19 -19 -40 -115 -32 -147 15 -62 83 -112 193 -144 62 -17 393 -27
424 -12 8 4 21 4 29 -1 8 -5 19 -5 25 -1 5 5 49 11 96 15 47 4 97 9 110 11 13
3 49 8 79 11 74 9 95 12 95 14 0 1 14 3 30 5 27 2 71 8 162 20 18 3 57 8 85
11 29 3 64 7 78 10 14 2 54 6 90 10 36 3 75 7 87 10 18 3 21 0 18 -18 -5 -28
-14 -123 -21 -203 -3 -33 -7 -67 -11 -75 -10 -26 -11 -171 -1 -209 14 -55 16
-66 18 -71 1 -3 2 -8 2 -12 -1 -3 5 -12 13 -18 8 -7 15 -18 15 -25 0 -14 76
-90 110 -110 124 -71 224 -93 410 -89 80 1 161 5 180 9 65 13 155 48 207 81
52 33 133 124 133 150 0 8 5 14 12 14 6 0 9 2 6 6 -3 3 0 24 7 47 11 39 11
134 0 237 -2 25 -7 68 -9 95 -3 28 -8 64 -10 80 -3 17 -7 48 -10 71 l-5 41 37
-3 c20 -1 54 -5 76 -8 21 -3 66 -9 99 -11 34 -3 76 -8 92 -12 17 -3 41 -7 55
-8 26 -3 88 -11 155 -21 22 -4 53 -8 70 -9 16 -2 46 -6 65 -9 55 -9 212 -26
295 -31 22 -2 40 -4 40 -5 0 -6 331 -7 340 -2 5 4 26 8 45 9 19 2 43 5 53 6 9
0 17 5 17 10 0 5 7 7 15 3 8 -3 15 -2 15 2 0 4 14 13 31 21 58 25 93 69 106
131 5 23 -18 102 -39 132 -10 14 -18 29 -18 33 0 10 -121 137 -167 175 -87 71
-187 168 -200 193 -23 46 -62 88 -212 230 -28 26 -51 49 -51 51 0 2 17 7 38
10 78 14 175 58 213 96 58 58 51 142 -20 230 -39 49 -53 62 -132 130 -29 25
-86 77 -126 115 -69 67 -72 72 -67 107 12 72 -10 105 -179 262 -21 20 -35 36
-30 37 7 0 32 5 68 13 24 5 75 32 75 39 0 5 4 6 9 3 16 -10 53 42 58 83 7 52
-25 109 -101 176 -31 28 -79 71 -107 98 -28 26 -54 47 -59 47 -15 0 -18 39 -3
59 35 51 -9 131 -119 217 l-27 21 60 18 c32 10 57 20 55 22 -2 2 7 15 20 28
29 30 30 85 2 115 -11 11 -16 20 -13 20 4 0 -20 24 -52 53 -86 77 -273 267
-273 277 0 4 10 10 23 14 35 8 77 52 77 78 0 13 -11 40 -25 60 l-25 37 25 25
c50 51 31 87 -119 223 -25 23 -46 47 -46 53 0 5 -4 10 -10 10 -5 0 -20 11 -34
25 -14 14 -22 25 -19 25 3 0 -6 9 -21 21 -14 11 -26 27 -26 35 0 8 -4 14 -10
14 -5 0 -57 60 -114 133 -114 143 -151 188 -208 251 -21 22 -38 44 -38 49 0 4
-6 7 -14 7 -7 0 -20 7 -27 17 -18 20 -75 46 -114 50 -16 2 -49 -6 -72 -16z"/>
</g>
</svg>
