<?xml version="1.0" encoding="UTF-8"?><svg id="Layer_2" xmlns="http://www.w3.org/2000/svg" viewBox="0 0 645.61 558.63">
    <defs>
        <style>
        .cls-1 {
            fill: none;
            stroke: #8fbcbb;
            stroke-miterlimit: 10;
            stroke-width: 40px;
        }

        @media (prefers-color-scheme: dark) {
            .cls-1 {
                stroke: #88c0d0;
            }
        }

        .cls-1 {
            stroke-dasharray: 2463;
            stroke-dashoffset: 2463;
            animation: dash 20s linear infinite;
        }

        @keyframes dash {
            50% {
                stroke-dashoffset: 0;
            }
            100% {
                stroke-dashoffset: -2463;
            }
        }
        </style>
    </defs>
    <g id="Layer_1-2">
        <path class="cls-1" d="M624.94,250.16c.04-.53,0-1.06-.2-1.61-.05-.13-.08-.26-.09-.39-.25-3.42-.3-6.87-.86-10.23-.45-2.69-.77-5.67-.88-8.11-.19-4.65-2.46-7.9-4.31-11.55-.73-1.43-.85-3.1-.49-4.19,.97-2.93-.41-4.62-2.24-6.38-1.15-1.11-2.32-2.23-3.29-3.49-2.31-2.99,4.65-14.07,5.74-15.48,.13-.17,.21-.36,.25-.57,.66-3.28,2.58-6.15,4.48-8.52,1.7-2.11,.72-11.4,.8-11.62,2-5.29-.14-10.64,.25-15.78,.39-5.13-.04-9.62-1.66-14.35-.48-1.4-2.04-1.76-2.04-2.51,.06-5.68-5.32-7.48-8.4-9.63-3.43-2.39-5.71-5.04-7.71-8.32-.48-.79-1.07-.87-1.7-.92-.32-.03-.62-.17-.85-.39-1.38-1.37-6.55-5.75-7.13-7.14-.56-1.97-3.92-2.24-4.83-2.4-.2-.03-.38-.13-.54-.25-3.5-2.64-7.94-3.04-11.77-4.9,0,0-7.15-3.76-9.87-3.48-2.2,.22-3.04-4.01-3.04-4.01h0c0-.49,.01-.97,.02-1.46-.14-1.05,.56-2.27-.19-3.21-.25-.31-.4-.7-.3-1.09,.83-3.19-1.46-4.88-3.62-6.73-.66-.57-.69-1.83-1.28-2.56-.23-.28-.44-.35-.62-.31-.59,.13-1.22,.02-1.56-.48-2-2.97-5.28-4.53-8.07-6.58-2.21-1.62-4.32-4.34-6.34-4.93-4.7-1.38-8.12-4.55-11.33-7.39-4.15-3.67-8.27-5.74-13.64-5.66-2.24,.03-4.44,0-5.64-2.45-.31-.64-1.13-.89-1.61-.61-3.3,1.94-19.47,.95-23.88-.47-1.33-.43-1.95,.15-2.45,.52-3.92,2.91-9.87-3.23-13.63-5.87-.12-.08-.22-.17-.31-.29-1.77-2.46-23.04-21.4-26.03-22.04-3.39-.72-16.88-2.9-20.48-1.63-2.16,.76-5.46-1.06-8.09,.89-.26,.19-.71,.25-1.04,.2-3.85-.6-7.59,.96-11.4,.64-2.33-.2-4.04,2.13-6.05,1.69-3.4-.74-6.66-.49-9.97,0-.39,.06-.77-.08-1.08-.33-.61-.49-1.41-.6-1.37,.24,.08,1.88-.4,2.19-1.7,1.19-1.45-1.12-2.07,.6-2.12,.86-.41,2.05-9.81,6.46-12.59,8.5h0c-2.02,1.02-4.46,.4-6.41,1.69-.11,.22-3.52,.07-4.83,1.41-1.39,1.3-4.23,3.83-4.23,3.83-.43,.42-1.13,.77-1.26,1.26-1.11,4.22-3.27,6.22-7.58,4.08-.14-.07-.27-.16-.38-.26-4.73-4.51-7.31-10.83-12.51-14.96-.8-.64-.92-1.74-.58-2.78h0c.41-.21,1.58-4.05,1.39-4.54-1.19-2.98-3.98-4.16-6.91-3.04-1.35,.52-3.02,1.97-3.81-.78-.15-.5-.68-.7-1.17-.24-1.48,1.39-3.31,.2-4.6,.51-2.92,.69-18.3-.25-22.01-.56-3.54-.3-8.17,.44-11.3,3.45-3.33,3.21-7.91,3.35-11.77,5.19-4.4,2.11-9.35,1.93-13.8,4.06-5.1,2.44-9.19,5.63-11.69,10.67-.56,1.13-9.85,3.74-13.33,2.38,0,0-4.25-1.81-6.32-2.96-3.33-1.85-11.95-5.2-12.89-5.2-5.36,0-10.82-.6-16.05,.23-3.02,.48-12.6,5.09-14.37,5.59-6.43,1.8-12.98,3.21-17.8,8.4-.88,.87-3.94,3.03-4.64,3.84-3.55,4.05-6.5,8.71-11.15,11.68-3.72,2.38-7.04,4.84-7.09,10-.01,1.39-1.44,2.77-1.8,4.54-.35,1.7-11.91,3.86-14.91,3.05-.64-.17-20.51,7.11-22.92,9.89-.52,.6-1.38,.53-2.11,.25-3-1.16-5.59,.48-6.81,2.48-1.64,2.71-4.48,3.93-6.34,6.52-2.77,3.85-5.93,14.3-6.89,15.58-2.59,3.46-4.13,7.69-6.2,11.56-.44,.82-5.67,10.55-3.72,15.74,.36,.95,.55,2.6-1.14,3.14-.91,.29-1.17,1.01-1.01,1.75,.73,3.34-1.31,5.15-3.12,7.65-3.62,4.99-8.87,6.72-13.91,9.16-.98,.48-5.03,1.92-6.93,1.72-1.81-.43-3.52,5.25-5.69,3.78-.6-.41-1.38,.23-1.46,.74-.44,2.64-4.13,5.81-4.13,5.81l-.02,.04s-2.83,2.33-4.3,2.94c-4.55,1.9-6.77,7.13-3.97,11.23,1.27,1.87,1.66,3.63,.75,5.39-1.2,2.35,.2,5.03-1.3,7.28-.26,.4-.16,1.55,.17,1.76,2.84,1.85,1.3,3.2-.31,4.74-.47,.44-.6,1.33-.71,2.04-.41,2.61-.29,5.25-1.91,7.67-.94,1.4,.06,3.41,1.35,4.16,2.09,1.21,3.77,2.85,5.52,4.39,2.57,2.26,4.85,4.85,7.32,7.24,2.72,2.63,4.79,5.88,7.44,8.48,3,2.95,11.05,6.2,11.05,6.2,3.94,.83,11.75,16.72,11.94,21.51,.04,.95,.22,2.32,.84,2.75,3.26,2.22,3.76,5.97,5.49,9.05,.81,1.45,5.17,12.49,6.44,13.43,1.33,.99,4.02,5.79,5.24,6.2,2.53,.84,4.99,1.75,6.96,3.68,.95,.93,2.22,1.95,3.35,2.29,1.34,.4,47.11,30.04,52.59,34.59,4.02,3.34,13.51,8.25,14.3,8.27h0c.59,.15,1.63,.19,1.7,.47,.77,3.14,4.37,3.13,5.96,3.64,4.98,1.61,15.35,1.41,16.82,1.37,.12,0,.23,0,.35,.03,1.45,.34,3.68,1.23,3.99,.78,2.58-3.71,7.92-2.31,10.54-5.97,.44-.61,.64-2.17,2.02-2.16,6.27,.03,8.78-5.47,12.81-8.73,3.99-3.23,4.86-8.47,7.89-12.35,1.14-1.46,2.06-2.41,3.45-.88,2.51,2.77,6.37,2.59,9.18,4.59,2.53,1.79,7.93,4.51,7.94,6.02,0,.93-.13,2.2-1.48,1.68-1.92-.73-3.23,.31-4.67,1.1-.09,.05-.18,.09-.28,.11-2.29,.67-2.7,1.4-2.26,3.82h0c.33,2.91,2.62,3.34,4.82,3.5,3.79,.27,8.72,6.09,7.99,9.6-.16,.75-.7,.84-1.21,1.17-1.17,.78,.61,3.61,1.31,3.66,.49,.04-.7,4.84,.68,7.29,1.17,2.08,1.53,3.53,.32,6.13-1.43,3.07,1.47,6.82,.38,10.41-.05,.16-.14,.31-.24,.44-1.62,2.15-.16,4.81-.82,7.12-.17,.58-.75,.95-1.36,.93-.76-.03-1.46,0-.84,1.45,1.06,2.49-.48,4.23-1.64,5.96-.72,1.08-2.69,8.66-4.36,11.36-1.36,2.19-2.87,4.06-4.4,6.09-1.48,1.97-5.56,1.22-4.97,5.21,.7,4.74-8.06,12.74-8.06,12.74-.43,.63-6.58,5.98-7.23,7.1-1.89,3.31-2.26,7.63-6.79,8.95-.22,.06-.37,.62-.43,.97-.51,3.11-2.93,5.3-4.91,7.04-1.39,1.22-1.53,2.35-1.8,3.59-.11,.51-.5,.93-1.01,1.05-1.32,.3-3.02-.18-3.56,1.74-.46,.36-1.82-.3-1.42,.85,.29,.82,.6,1.21-.3,1.71-1.59,.87-.94-.89-1.49-1.22-.49-.29-.91-.25-1.08,.4-.58,1.14-2.22,1.33-2.47,2.77-1.46,2.53-2.97,4.64-6.38,5.15-1.45,.22-14.27,4.13-15.42,5.15-.36,.11-.71,.27-1.06,.45-3.21,2.2-7.14,2.13-10.56,2.01-3.23-.12-23.04,5.04-22.9,5.35,.14,.1,.27,.19,.41,.28,0,0,0,0,.01,0,0,.13-.38,.32-.47,.55-.75,.99-1.93,1.38-2.89,2.08-.12,.09-.23,.21-.32,.33-.88,1.26-1.69,2.55-2.05,4.07-.03,.11-.06,.23-.12,.33-.46,.83-1.42,1.24-1.8,2.13-.87,2.36-1.23,4.68,.51,6.85,.87,2.75,7.34,5.22,8.48,5.82,.28,.17,.57,.33,.88,.45,1.44,.39,3.04-1.11,4.38,.39,.65,.33,1.4,1.05,1.92,.91,4.04-1.08,8.19-1.16,12.22-.71,2.71,.3,8.16,.26,8.65,.57,6.18,3.91,11.71,8.92,18.49,11.82,6.17,2.64,20.18,6.91,21.18,6.91,4.34-.02,8.68-.01,13.02,0,1.09,0,45.63-2.66,47.28-2.49,4.41,.46,8.65,2.06,12.97,2.33,8.54,.53,28.27-1.63,30.38-2.02,.1-.02,.2-.06,.29-.1,1.36-.67,2.93-.38,4.33-.86,.08-.03,.17-.05,.26-.07,4.03-.56,8.19,.53,12.12-.67,3.58-1.09,7.15-1.26,10.7-.6,10.6,1.97,21.25,.89,31.88,.87l.81-.09c5.51-1.17,11.1-.8,16.67-.81,10.08-.02,20.16-.24,30.23,.08,12.52,.4,41.39-7.19,44.07-6.2,5.7,2.11,11.67,1.66,17.58,1.67,6.6,.01,13.21-.16,19.81,.06,2.9,.1,6.23-3.33,6.87-3.83l.28-.25c.61-.63,1.22-1.25,1.83-1.88,.07-.07,.14-.14,.23-.19,.62-.41,1.38-.59,1.91-1.15,.34-.35,.63-.74,.86-1.17,.45-1.09,1.35-1.81,2.14-2.61,1.09-1.31,10.9-2.56,14.48-3.15,2.76-.45,3.91-2.9,3.42-5.79-.21-1.23-.17-2.5-.65-3.68-.62-.5-.5-.97,.04-1.42,.22-.51,.34-1.05,.37-1.6,.4-2.59-.68-4.54-2.5-6.17-.19-.17-.44-.28-.7-.32-2.34-.38-4.63-.93-6.83-1.83-5.34-1.42-20.36-8.72-21.68-9.94-.59-.68-14.98-2.02-15.68-2.21h0c-3.21-.67-6.9,1.39-9.69-1.87-1.63-1.9-7.38-3.19-8.41-4.15h0c-.45-.27-8.29-3.62-9.36-5.2-1.53-2.27-8.23-6.21-8.86-5.86-.53,.3,.4-1.04-1.01-2.42-.97-.95-1.97-.27-2.96-.06-.1,.02-.21,.03-.31,.03-2.92,.05-4.81-2.11-7.01-3.5-.85-.54-5.08-3.47-6.32-4h0c-2.58-.75-2.98-4.37-5.98-4.55-.44-.35-2.51-.25-2.98-.76-.78-.95-2.03-.82-3-1.33-.55-.08-1.35,.01-1.51-.21-1.28-.1-2.51-.2-2.23-2.06,.15-1-.46-2.1-1.37-1.44-1.51,1.1-1.66,.06-2.14-.84-.72-1.33-3.38-2.84-3.41-3.09-1.44-1.21-4.64-7.61-4.53-9.91,.01-.28,.15-.55,.34-.76,.34-.39,.68-.78,1.02-1.17,.16-.03,.26-.11,.25-.29h0c1.51-2.04-2.17-3.08-1.05-4.75,.81-1.22,.73-2.38,.6-3.55-.06-.59,.24-1.2,.79-1.39,.26-.09,.44-.29,.4-.71-.08-.76-.45-1.23-1.04-1.38-.67-.17-1.05-.89-.97-1.58,.23-1.98,.8-5.23,1.2-6.33,.68-1.85,1.88-4.02-.53-5.73-.92-.65-.64-1.16,.36-1.4,1.77-.42,.94-1.8,1.06-2.82,.02-.15,.07-.28,.15-.41,.52-.89,1.96-2.66,2.03-3.44h0c.03-.25,.08-.69,.1-.9,0-.09,.03-.17,.06-.26,.34-1.09,2.77-8.81,2.87-9.55,.8-5.98,6.29-10.32,5.82-16.73,0-.13,.55-.28,.84-.44,3.27-1.79,4.42-4.17,3.12-6.83-1.19-2.43-3.06-2.85-5.17-2.44-.83,.16-1.61-.43-1.66-1.27v-.02c.06-.42,.12-.84,.18-1.26,.15-.43,.26-.84,.28-1.23,.12-.52,.23-1.03,.35-1.55,.7-.4,1.06-.61,1.76-1.02,.57,.18,1.1,.5,1.63,.75,3.53,1.65,7.39,2.52,10.87,1.03,2.03-.87,1.38,1.17,2.26,1.01,1.48,.79,3.25,1.29,4.38,2.42,3.44,3.45,26.39,5.92,27.74,6.06,.05,0,.09,.01,.13,.02,1.83,.41,3.51,.43,4.45-1.64,1.31-.3-.1,3.45,2.29,1.54h0l.15-.13c.87-.5,2.09,1.42,2.91-.41,.7-1.57,9.79,.36,12.87,1.86,4.14,2.02,8.44-1.47,13.13,.16,3.88,1.35,8.53-.42,12.66-1.54,2.88-.78,6.34-.89,8.21-3.86,.21-.33,.52-.59,.9-.66,2.48-.46,8.13,.68,9.84,.55,2.16-.16,5.02-.74,6.31,.35,1.16,.98,9.62,1.43,11.6,1.5h0c3.36,.47,12.62-3.51,15.01-4.63,2.9-1.36,6.2-1.12,9.26-2.16,2.84-.97,5.52-2.01,7.9-3.83,.05-.04,.09-.07,.14-.1,1.59-.89,16.71-13.78,17.24-15.01,1.06-2.5,1.99-8.67,2.07-9.61,.17-2.07,.46-4.17,.57-6.19,.3-5.24,1.29-10.67-1.85-15.62-.54-.85-.94-3.26,.68-3.42,1.34-.13,2.43-.68,3.48-.85,6.3-.98,6.65-6.67,9.15-10.64,.02-.04,.04-.07,.07-.1,.27-.38,2.07-2.83,2.82-3.17,4.93-2.21,8.05-4.84,8.84-9.31,.3-1.72,.66-3.87,1.81-4.39,1.89-.86,2.12-5.77,2.81-6.97,2.72-4.78,2.09-9.86,1.31-14.92Z" />
    </g>
</svg>